<?xml version="1.0" encoding="UTF-8" standalone="no"?><!DOCTYPE svg PUBLIC "-//W3C//DTD SVG 1.1//EN" "http://www.w3.org/Graphics/SVG/1.1/DTD/svg11.dtd"><svg width="100%" height="100%" viewBox="0 0 1875 1875" version="1.1" xmlns="http://www.w3.org/2000/svg" xmlns:xlink="http://www.w3.org/1999/xlink" xml:space="preserve" xmlns:serif="http://www.serif.com/" style="fill-rule:evenodd;clip-rule:evenodd;stroke-linejoin:round;stroke-miterlimit:2;"><g id="Aurion-Logo" serif:id="Aurion Logo"><g><path d="M1455.411,1875l-1035.806,0c-231.738,0 -419.604,-187.866 -419.604,-419.589l0,-1035.822c0,-231.738 187.866,-419.589 419.604,-419.589l1035.806,0c231.738,0 419.589,187.851 419.589,419.589l0,1035.822c0,231.723 -187.851,419.589 -419.589,419.589" style="fill:#ff004b;fill-rule:nonzero;"/></g><g><path d="M1390.931,1147.236l-342.601,-593.405c-47.108,-81.594 -152.41,-109.808 -234.002,-62.702c-81.592,47.108 -109.808,152.41 -62.702,234.002l342.603,593.405c47.108,81.594 152.408,109.808 234.002,62.702c81.592,-47.108 109.808,-152.41 62.7,-234.002m-743.38,-85.106c-94.606,0 -171.301,76.694 -171.301,171.301c0,94.606 76.694,171.301 171.301,171.301c94.608,0 171.303,-76.694 171.303,-171.301c0,-94.606 -76.694,-171.301 -171.303,-171.301" style="fill:#fff;fill-rule:nonzero;"/></g></g></svg>