<?xml version="1.0" encoding="UTF-8" standalone="no"?><!DOCTYPE svg PUBLIC "-//W3C//DTD SVG 1.1//EN" "http://www.w3.org/Graphics/SVG/1.1/DTD/svg11.dtd"><svg width="100%" height="100%" viewBox="0 0 1875 1875" version="1.1" xmlns="http://www.w3.org/2000/svg" xmlns:xlink="http://www.w3.org/1999/xlink" xml:space="preserve" xmlns:serif="http://www.serif.com/" style="fill-rule:evenodd;clip-rule:evenodd;stroke-linejoin:round;stroke-miterlimit:2;"><g id="eCom-Logo" serif:id="eCom Logo"><g><path d="M419.589,1875l1035.806,0c231.738,0 419.604,-187.866 419.604,-419.589l0,-1035.822c0,-231.738 -187.866,-419.589 -419.604,-419.589l-1035.806,0c-231.738,0 -419.589,187.851 -419.589,419.589l0,1035.822c0,231.723 187.851,419.589 419.589,419.589" style="fill:#72bbc6;fill-rule:nonzero;"/></g></g><path d="M1516.092,1517.165l-577.519,0c-319.926,0 -579.665,-259.739 -579.665,-579.665c0,-319.926 259.739,-579.665 579.665,-579.665l577.519,0l0,42.938l-577.519,0c-296.228,0 -536.727,240.499 -536.727,536.727c0,296.228 240.499,536.727 536.727,536.727l577.519,0l0,42.938Zm0,-85.876l-577.519,0c-272.53,0 -493.789,-221.259 -493.789,-493.789c0,-272.53 221.259,-493.789 493.789,-493.789l577.519,0l0,42.938l-577.519,0c-248.831,0 -450.851,202.02 -450.851,450.851c0,248.831 202.02,450.851 450.851,450.851l577.519,0l0,42.938Zm0,-85.876l-577.519,0c-225.133,0 -407.913,-182.78 -407.913,-407.913c0,-225.133 182.78,-407.913 407.913,-407.913l577.519,0l0,42.938l-577.519,0c-201.435,0 -364.975,163.54 -364.975,364.975c0,201.435 163.54,364.975 364.975,364.975l577.519,0l0,42.938Zm0,-85.876l-577.519,0c-177.737,0 -322.036,-144.3 -322.036,-322.036c0,-177.737 144.3,-322.036 322.036,-322.036l577.519,0l0,42.938l-577.519,0c-154.038,0 -279.098,125.06 -279.098,279.098c0,154.038 125.06,279.098 279.098,279.098l577.519,0l0,42.938Zm0,-85.876l-577.519,0c-130.34,0 -236.16,-105.82 -236.16,-236.16c0,-130.34 105.82,-236.16 236.16,-236.16l577.519,0l0,42.938l-577.519,0c-106.642,0 -193.222,86.58 -193.222,193.222c0,106.642 86.58,193.222 193.222,193.222l577.519,0l0,42.938Zm0,-85.876l-577.519,0c-82.944,0 -150.284,-67.34 -150.284,-150.284c0,-82.944 67.34,-150.284 150.284,-150.284l577.519,0l0,42.938l-577.519,0c-59.246,0 -107.345,48.1 -107.345,107.345c0,59.246 48.1,107.345 107.345,107.345l577.519,0l0,42.938Zm0,-85.876l-577.519,0c-35.547,0 -64.407,-28.86 -64.407,-64.407c0,-35.547 28.86,-64.407 64.407,-64.407l577.519,0l0,42.938l-577.519,0c-11.849,0 -21.469,9.62 -21.469,21.469c0,11.849 9.62,21.469 21.469,21.469l577.519,0l0,42.938Z" style="fill:#fff;"/></svg>