<?xml version="1.0" encoding="UTF-8" standalone="no"?><!DOCTYPE svg PUBLIC "-//W3C//DTD SVG 1.1//EN" "http://www.w3.org/Graphics/SVG/1.1/DTD/svg11.dtd"><svg width="100%" height="100%" viewBox="0 0 1875 1875" version="1.1" xmlns="http://www.w3.org/2000/svg" xmlns:xlink="http://www.w3.org/1999/xlink" xml:space="preserve" xmlns:serif="http://www.serif.com/" style="fill-rule:evenodd;clip-rule:evenodd;stroke-linejoin:round;stroke-miterlimit:2;"><g id="eCom-Logo" serif:id="eCom Logo"><g><path d="M419.589,1875l1035.806,0c231.738,0 419.604,-187.866 419.604,-419.589l0,-1035.822c0,-231.738 -187.866,-419.589 -419.604,-419.589l-1035.806,0c-231.738,0 -419.589,187.851 -419.589,419.589l0,1035.822c0,231.723 187.851,419.589 419.589,419.589" style="fill:#ff004b;fill-rule:nonzero;"/></g><path d="M680.974,611.566c-87.861,1.45 -138.267,54.241 -138.267,120.516l-53.075,666.403c0,63.695 51.712,115.407 115.407,115.407l670.388,0c63.695,0 115.407,-51.712 115.407,-115.407l-58.13,-661.348c-5.047,-81.255 -66.677,-127.893 -137.808,-125.528c0,-0.029 0,-0.057 0,-0.086c0,-141.821 -115.141,-256.962 -256.962,-256.962c-141.821,0 -256.962,115.141 -256.962,256.962l0,0.043Zm420.41,0.054l-326.898,0c0,-0.033 0,-0.065 0,-0.098c0,-90.21 73.239,-163.449 163.449,-163.449c90.21,0 163.449,73.239 163.449,163.449c0,0.033 0,0.065 0,0.098Zm-326.898,240.882c0,90.21 73.239,163.449 163.449,163.449c90.21,0 163.449,-73.239 163.449,-163.449c0,-25.806 20.951,-46.756 46.756,-46.756c25.806,0 46.756,20.951 46.756,46.756c0,141.821 -115.141,256.962 -256.962,256.962c-141.821,0 -256.962,-115.141 -256.962,-256.962c0,-25.806 20.951,-46.756 46.756,-46.756c25.806,0 46.756,20.951 46.756,46.756Z" style="fill:#fff;"/></g></svg>