<?xml version="1.0" encoding="UTF-8" standalone="no"?><!DOCTYPE svg PUBLIC "-//W3C//DTD SVG 1.1//EN" "http://www.w3.org/Graphics/SVG/1.1/DTD/svg11.dtd"><svg width="100%" height="100%" viewBox="0 0 1875 1875" version="1.1" xmlns="http://www.w3.org/2000/svg" xmlns:xlink="http://www.w3.org/1999/xlink" xml:space="preserve" xmlns:serif="http://www.serif.com/" style="fill-rule:evenodd;clip-rule:evenodd;stroke-linejoin:round;stroke-miterlimit:2;"><g id="Aurion-Logo" serif:id="Aurion Logo"><g><path d="M1455.411,1875l-1035.806,0c-231.738,0 -419.604,-187.866 -419.604,-419.589l0,-1035.822c0,-231.738 187.866,-419.589 419.604,-419.589l1035.806,0c231.738,0 419.589,187.851 419.589,419.589l0,1035.822c0,231.723 -187.851,419.589 -419.589,419.589" style="fill:#ff0069;fill-rule:nonzero;"/></g></g><path d="M945,362.82c186.86,0 209.022,0.7 282.856,4.082c189.659,8.631 278.248,98.62 286.88,286.88c3.383,73.776 4.024,95.938 4.024,282.797c0,186.918 -0.7,209.022 -4.024,282.797c-8.69,188.084 -97.046,278.248 -286.88,286.88c-73.834,3.383 -95.879,4.082 -282.856,4.082c-186.86,0 -209.022,-0.7 -282.797,-4.082c-190.126,-8.69 -278.248,-99.087 -286.88,-286.938c-3.383,-73.776 -4.082,-95.879 -4.082,-282.797c0,-186.86 0.758,-208.963 4.082,-282.797c8.69,-188.201 97.046,-278.248 286.88,-286.88c73.834,-3.324 95.938,-4.024 282.797,-4.024Zm-0,-126.148c-190.067,0 -213.862,0.816 -288.513,4.199c-254.162,11.664 -395.415,152.684 -407.079,407.079c-3.441,74.709 -4.257,98.504 -4.257,288.571c0,190.067 0.816,213.921 4.199,288.571c11.664,254.162 152.684,395.415 407.079,407.079c74.709,3.383 98.504,4.199 288.571,4.199c190.067,0 213.921,-0.816 288.571,-4.199c253.929,-11.664 395.531,-152.684 407.021,-407.079c3.441,-74.651 4.257,-98.504 4.257,-288.571c0,-190.067 -0.816,-213.862 -4.199,-288.513c-11.431,-253.929 -152.625,-395.415 -407.021,-407.079c-74.709,-3.441 -98.562,-4.257 -288.629,-4.257Zm-0,340.477c-198.466,0 -359.373,160.907 -359.373,359.373c0,198.466 160.907,359.431 359.373,359.431c198.466,0 359.373,-160.907 359.373,-359.431c0,-198.466 -160.907,-359.373 -359.373,-359.373Zm0,592.656c-128.831,0 -233.283,-104.394 -233.283,-233.283c0,-128.831 104.452,-233.283 233.283,-233.283c128.831,0 233.283,104.452 233.283,233.283c0,128.889 -104.452,233.283 -233.283,233.283Zm373.603,-690.809c-46.423,0 -84.04,37.617 -84.04,83.982c0,46.365 37.617,83.982 84.04,83.982c46.365,0 83.924,-37.617 83.924,-83.982c0,-46.365 -37.559,-83.982 -83.924,-83.982Z" style="fill:#fff;fill-rule:nonzero;"/></svg>