<?xml version="1.0" encoding="UTF-8" standalone="no"?><!DOCTYPE svg PUBLIC "-//W3C//DTD SVG 1.1//EN" "http://www.w3.org/Graphics/SVG/1.1/DTD/svg11.dtd"><svg width="100%" height="100%" viewBox="0 0 1875 1875" version="1.1" xmlns="http://www.w3.org/2000/svg" xmlns:xlink="http://www.w3.org/1999/xlink" xml:space="preserve" xmlns:serif="http://www.serif.com/" style="fill-rule:evenodd;clip-rule:evenodd;stroke-linejoin:round;stroke-miterlimit:2;"><path d="M1484.375,0l-1093.75,0c-215.703,0 -390.625,174.922 -390.625,390.625l0,1093.75c0,215.703 174.922,390.625 390.625,390.625l1093.75,0c215.781,0 390.625,-174.922 390.625,-390.625l0,-1093.75c0,-215.703 -174.844,-390.625 -390.625,-390.625Zm-859.375,1484.375l-234.375,0l0,-859.375l234.375,0l0,859.375Zm-117.188,-958.438c-75.469,0 -136.719,-61.719 -136.719,-137.813c0,-76.094 61.25,-137.813 136.719,-137.813c75.469,0 136.719,61.719 136.719,137.813c0,76.094 -61.172,137.813 -136.719,137.813Zm1054.688,958.438l-234.375,0l0,-437.812c0,-263.125 -312.5,-243.203 -312.5,0l0,437.812l-234.375,0l0,-859.375l234.375,0l0,137.891c109.062,-202.031 546.875,-216.953 546.875,193.438l0,528.047Z" style="fill:#0072b1;fill-rule:nonzero;"/></svg>