<?xml version="1.0" encoding="UTF-8" standalone="no"?>
<!DOCTYPE svg PUBLIC "-//W3C//DTD SVG 1.1//EN" "http://www.w3.org/Graphics/SVG/1.1/DTD/svg11.dtd">
<svg width="100%" height="100%" viewBox="0 0 732 453" version="1.1" xmlns="http://www.w3.org/2000/svg" xmlns:xlink="http://www.w3.org/1999/xlink" xml:space="preserve" xmlns:serif="http://www.serif.com/" style="fill-rule:evenodd;clip-rule:evenodd;stroke-linejoin:round;stroke-miterlimit:2;">
    <g transform="matrix(0.938698,0,0,0.938698,436.743869,615.72676)">
        <path d="M-373.802,-357.342C-323.287,-357.342 -282.337,-316.392 -282.337,-265.878C-282.337,-215.364 -323.287,-174.414 -373.802,-174.414C-424.316,-174.414 -465.266,-215.364 -465.266,-265.878C-465.266,-316.392 -424.316,-357.342 -373.802,-357.342Z" style="fill:white;"/>
    </g>
    <g transform="matrix(0.938698,0,0,0.938698,436.743869,615.72676)">
        <path d="M4.613,-311.883C29.766,-268.318 14.7,-212.094 -28.865,-186.941C-72.431,-161.789 -128.654,-176.854 -153.807,-220.42L-326.082,-518.808C-351.234,-562.373 -336.168,-618.597 -292.603,-643.75C-249.038,-668.902 -192.814,-653.837 -167.661,-610.271L4.613,-311.883Z" style="fill:white;"/>
    </g>
    <g transform="matrix(0.938698,0,0,0.938698,715.885848,615.72676)">
        <path d="M4.613,-311.883C29.766,-268.318 14.7,-212.094 -28.865,-186.941C-72.431,-161.789 -128.654,-176.854 -153.807,-220.42L-326.082,-518.808C-351.234,-562.373 -336.168,-618.597 -292.603,-643.75C-249.038,-668.902 -192.814,-653.837 -167.661,-610.271L4.613,-311.883Z" style="fill:white;"/>
    </g>
</svg>
