<?xml version="1.0" encoding="UTF-8" standalone="no"?><!DOCTYPE svg PUBLIC "-//W3C//DTD SVG 1.1//EN" "http://www.w3.org/Graphics/SVG/1.1/DTD/svg11.dtd"><svg width="100%" height="100%" viewBox="0 0 1875 1875" version="1.1" xmlns="http://www.w3.org/2000/svg" xmlns:xlink="http://www.w3.org/1999/xlink" xml:space="preserve" xmlns:serif="http://www.serif.com/" style="fill-rule:evenodd;clip-rule:evenodd;stroke-linejoin:round;stroke-miterlimit:2;"><g id="Aurion-Logo" serif:id="Aurion Logo"><g><path d="M1455.411,1875l-1035.806,0c-231.738,0 -419.604,-187.866 -419.604,-419.589l0,-1035.822c0,-231.738 187.866,-419.589 419.604,-419.589l1035.806,0c231.738,0 419.589,187.851 419.589,419.589l0,1035.822c0,231.723 -187.851,419.589 -419.589,419.589" style="fill:#ea5152;fill-rule:nonzero;"/></g></g><g id="Layer-1" serif:id="Layer 1"><g><path d="M712.622,454.704c-1.033,0 -2.085,0.014 -3.166,0.048c-21.287,0.7 -35.431,0.9 -48.528,0.9c-17.626,0 -33.344,-0.36 -62.059,-0.36l-181.777,0c180.44,320.109 360.95,640.333 544.071,965.193c59.238,-104.515 100.231,-173.316 155.598,-273.77c5.295,-9.612 5.017,-27.441 -0.415,-37.12c-111.494,-199.275 -247.96,-428.448 -359.413,-627.75c-11.098,-19.866 -23.295,-27.142 -44.312,-27.142" style="fill:#fff;fill-rule:nonzero;"/></g><g><path d="M1069.564,685.533c-0.693,43.634 21.461,87.164 62.754,106.718c34.507,16.34 68.864,18.232 103.979,1.706c25.119,-11.83 46.255,-29.118 64.306,-49.38c27.723,-31.104 54.788,-80.602 78.732,-123.577c21.767,-39.07 68.437,-119.455 76.956,-146.03c3.569,-11.135 1.844,-19.2 -11.407,-19.2c-61.074,0 -129.584,-1.322 -183.068,-1.255c-79.62,0.104 -104.915,-0.089 -153.356,5.287c-46.44,5.147 -92.866,39.835 -107.604,86.309c-12.308,38.776 14.344,102.16 20.04,95.921c34.985,-38.32 51.928,-48.146 85.26,-64.137c9.161,-4.392 18.601,-7.855 28.061,-10.693l-0.34,-0.053c0,0 5.794,-1.701 15.256,-3.926c0.338,-0.075 2.77,-0.806 3.108,-0.881c18.437,-4.283 47.968,-9.692 79.76,-9.692c41.476,0 45.316,0.77 45.316,0.77l-0.068,8.345c0,0 -31.099,2.165 -42.63,3.842c-14.069,2.046 -32.016,6.636 -42.461,9.484c-21.772,6.622 -43.436,14.047 -51.317,18.256c-34.425,18.379 -44.932,27.651 -70.857,51.272c-19.108,17.409 -39.922,39.297 -56.745,59.088c-12.385,14.564 -20.727,29.27 -30.817,45.757c-4.288,7.006 -9.11,17.45 -3.552,25.836c5.937,8.953 20.988,21.753 25.436,12.023c23.626,-51.687 36.3,-70.696 65.295,-105.837" style="fill:#fff;fill-rule:nonzero;"/></g><path d="M1814.302,937.502c0,484.24 -392.562,876.799 -876.802,876.799c-484.244,0 -876.802,-392.558 -876.802,-876.799c0,-484.244 392.558,-876.802 876.802,-876.802c484.24,0 876.802,392.558 876.802,876.802" style="fill:#ececeb;fill-rule:nonzero;"/><path d="M921.165,1117.915c-8.27,-6.761 -18.129,-10.448 -29.891,-10.705c-6.566,-0.077 -10.33,0.49 -15.005,2.09c-4.472,1.512 -9.001,4.104 -13.527,8.002c-9.124,7.634 -17.677,19.99 -24.611,34.014c-7.091,14.024 -12.968,29.695 -17.819,45.967c-0.436,1.459 -0.923,2.508 -0.693,3.867c0.429,2.565 6.823,19.779 45.531,26.816c38.704,7.037 71.535,-8.056 74.127,-8.932c0.459,-0.157 1.401,-0.536 1.907,-2.316c2.898,-10.177 4.568,-20.545 5.012,-30.74c0.586,-13.86 -1.325,-27.513 -5.636,-39.432c-4.292,-11.965 -11.187,-21.862 -19.396,-28.631" style="fill:#ea5152;fill-rule:nonzero;"/><path d="M1225.097,462.581c-7.072,-3.553 -14.201,-5.115 -23.079,-5.13c-16.911,-0.073 -33.363,7.699 -44.171,20.196c-5.391,6.237 -9.376,13.519 -11.677,21.287c-0.861,2.875 -1.447,6.068 -1.891,9.35l10.479,2.393c11.578,2.581 22.984,4.981 34.236,6.681c11.214,1.7 22.348,2.787 32.551,2.508c10.066,-0.168 19.553,-2.378 23.332,-5.364c1.918,-1.463 2.561,-2.477 3.27,-4.323c0.325,-0.995 0.636,-1.999 0.823,-3.733c0.077,-2.01 0.475,-3.989 0.272,-5.973c-0.023,-7.918 -2.577,-15.59 -6.788,-22.275c-4.372,-6.547 -10.322,-12.233 -17.355,-15.617" style="fill:#ea5152;fill-rule:nonzero;"/><path d="M937.502,0.003c517.768,0 937.498,419.731 937.498,937.498c0,517.768 -419.731,937.498 -937.498,937.498c-517.768,0 -937.498,-419.731 -937.498,-937.498c0,-517.768 419.731,-937.498 937.498,-937.498Zm356.274,501.929c1.072,-16.303 -2.921,-32.835 -10.659,-47.154c-7.879,-14.208 -19.335,-26.567 -33.466,-34.941c-6.941,-4.426 -14.679,-7.451 -22.532,-9.966c-8.167,-2.113 -15.793,-3.373 -23.657,-3.687c-31.56,-1.639 -63.568,11.279 -85.579,34.378c-11.038,11.509 -19.668,25.488 -24.99,40.676c-5.452,15.514 -6.964,30.748 -6.49,46.071c1.133,30.76 13.649,60.945 34.477,83.415c10.341,11.287 22.582,20.905 36.193,27.892c13.599,6.987 28.386,11.593 43.348,13.362c13.278,1.52 25.993,-7.133 29.056,-20.464c3.293,-14.323 -5.647,-28.604 -19.97,-31.897l-0.67,-0.153c-17.819,-4.093 -33.704,-13.488 -45.393,-26.893c-6.122,-7.137 -10.942,-15.28 -14.338,-23.96c10.751,2.917 21.705,5.643 33.022,7.879c12.596,2.443 25.556,4.403 39.554,4.66c7.018,0.073 14.292,-0.234 22.061,-1.643c7.711,-1.424 16.092,-3.859 24.393,-9.043c8.285,-5.035 15.935,-13.531 19.97,-22.834c2.071,-4.552 3.427,-9.411 4.181,-13.638c0.62,-3.993 1.428,-7.975 1.489,-12.06Zm-560.484,643.996c5.969,-29.113 10.567,-58.253 13.707,-87.451c3.342,-29.175 5.395,-58.368 6.501,-87.547c0.934,-25.02 4.246,-105.308 -0.234,-125.431c-2.067,-9.292 -10.632,-15.996 -20.464,-15.514c-11.03,0.544 -19.534,9.92 -18.994,20.951l0.111,2.286c0.195,4.012 -0.325,10.487 -1.501,16.785c-1.183,6.398 -2.661,13.06 -4.491,19.737c-3.699,13.366 -8.412,26.789 -13.645,40.006c-10.732,26.353 -23.581,52.036 -38.735,75.659c-15.081,23.596 -32.268,45.55 -51.875,62.576c-19.331,17.244 -40.955,29.148 -62.201,31.74c-34.707,4.575 -83.749,-6.111 -134.682,-51.293c-17.409,-17.21 -30.966,-38.838 -40.775,-63.403c-4.958,-12.256 -8.726,-25.262 -11.88,-38.616c-1.455,-6.693 -2.841,-13.473 -3.94,-20.303l-1.478,-10.246l-1.16,-9.614l-0.291,-2.473c-1.007,-8.239 -7.087,-15.311 -15.644,-17.187c-10.835,-2.381 -21.552,4.48 -23.925,15.319c-1.103,5.019 -1.731,8.718 -2.37,13.006c-0.643,4.146 -1.072,8.278 -1.409,12.413c-0.701,8.278 -1.015,16.578 -0.75,24.902c0.279,16.659 2.469,33.409 6.356,50.049c7.715,33.202 23.799,66.075 48.065,92.773c24.197,26.74 55.753,46.339 88.454,57.648c16.337,5.866 32.953,9.928 49.513,12.857l12.57,1.933c4.809,0.62 9.648,1.057 14.53,1.233c9.755,0.371 19.595,-0.257 29.201,-1.899c19.277,-3.174 37.376,-10.223 53.334,-19.308c16.031,-9.078 30.09,-20.12 42.506,-32.119c15.384,-15.169 28.57,-31.514 40.063,-48.594c-9.633,49.474 -21.766,98.209 -39.129,143.453c-9.771,24.963 -21.494,48.724 -35.561,68.874c-14.086,20.158 -31.165,35.672 -49.421,42.452c-9.013,3.595 -18.822,5.398 -28.792,5.502c-9.549,0.165 -18.96,-1.489 -28.635,-5.222c-9.602,-3.737 -19.561,-9.338 -28.926,-16.804c-4.828,-3.584 -9.415,-7.684 -13.982,-11.965c-2.305,-2.121 -4.529,-4.353 -6.696,-6.616c-2.179,-2.067 -4.503,-4.862 -6.149,-6.287l-4.001,-3.465c-5.165,-4.441 -12.481,-6.114 -19.4,-3.76c-10.399,3.538 -15.962,14.844 -12.424,25.239c1.681,4.935 3.074,8.289 4.778,12.252c1.719,3.764 3.584,7.439 5.567,11.069c3.947,7.271 8.699,14.101 13.833,20.843c10.56,13.144 23.569,25.426 39.612,34.623c15.889,9.315 34.887,15.146 54.019,16.264c9.556,0.632 18.676,-0.034 28.114,-1.248c9.304,-1.604 18.627,-3.825 27.406,-7.328c17.769,-6.696 33.294,-17.229 46.484,-28.907c13.274,-11.727 24.036,-24.898 33.398,-38.379c18.722,-27.046 31.361,-55.784 41.625,-84.518c10.226,-28.78 17.926,-57.805 23.814,-86.946Zm837.819,-372.171c1.279,-16.077 1.263,-32.62 -1.474,-50.033c-0.555,-4.296 -1.62,-8.791 -2.573,-13.201c-0.999,-4.212 -2.071,-7.822 -3.224,-11.727c-2.282,-7.677 -4.874,-15.299 -7.776,-22.869c-5.789,-15.123 -13.136,-29.971 -22.359,-44.206c-9.476,-14.024 -20.928,-27.639 -35.484,-38.524c-14.595,-10.828 -31.437,-19.155 -50.615,-21.969c-14.522,-2.159 -29.029,-0.605 -42.112,3.408c0.054,-0.234 0.145,-0.448 0.191,-0.693c7.19,-38.685 -19.921,-46.989 -32.731,-45.064c-10.188,1.528 -16.379,5.027 -21.965,9.464c-2.688,2.232 -4.958,4.736 -6.984,7.408c-1.922,2.718 -3.542,5.636 -5.211,8.507c-6.608,11.528 -12.631,23.378 -17.826,35.687c-10.632,24.481 -18.225,50.665 -21.598,78.128c-1.711,14.174 -1.968,28.271 -0.965,42.008c1.252,13.707 3.216,27.172 6.417,40.144c3.308,12.968 7.294,25.599 12.236,37.778c2.542,6.068 5.192,12.068 8.082,17.972c3.055,5.984 5.927,11.402 9.909,17.803c4.491,7.213 13.286,11.065 21.961,8.883c10.762,-2.707 17.286,-13.626 14.58,-24.389l-0.54,-2.148c-1.152,-4.575 -2.875,-10.383 -4.02,-15.759c-1.359,-5.444 -2.504,-10.965 -3.545,-16.475c-2.094,-11.007 -3.664,-22.019 -4.503,-32.923c-2.083,-21.774 -0.846,-43.076 3.224,-62.572c2.462,-10.1 5.226,-20.395 9.024,-30.423c2.902,-8.45 6.451,-16.766 10.207,-25.028c2.224,-1.034 4.468,-2.025 6.662,-2.829c5.961,-2.255 11.873,-4.208 17.765,-5.291c11.811,-2.217 22.834,-1.711 32.483,1.417c9.399,3.212 18.994,9.066 26.816,16.754c7.845,7.818 14.871,17.241 20.598,28.041c5.915,10.686 10.705,22.497 14.717,34.807c2.002,6.153 3.794,12.439 5.337,18.829c0.762,3.113 1.554,6.551 2.11,9.461c0.456,2.738 1.076,5.341 1.332,8.289c2.96,22.796 0.31,51.212 -3.423,75.858l-0.237,1.554c-2.163,14.656 6.995,28.91 21.659,32.781c15.744,4.15 31.878,-5.241 36.028,-20.989c1.24,-4.702 2.06,-8.197 2.864,-12.256c0.796,-3.928 1.52,-7.841 2.175,-11.777c1.34,-7.849 2.121,-15.797 2.787,-23.837Zm-303.771,407.498c8.622,-75.146 9.897,-151.443 2.175,-227.477c-3.836,-38.026 -9.74,-75.992 -18.611,-113.765c-4.445,-18.902 -9.621,-37.743 -15.828,-56.664c-3.178,-9.468 -6.497,-18.933 -10.403,-28.566c-3.963,-9.706 -8.113,-19.297 -14.132,-30.254l-0.176,-0.322c-0.348,-0.632 -0.712,-1.252 -1.087,-1.872c-14.384,-23.508 -45.098,-30.909 -68.61,-16.525c-23.508,14.377 -30.909,45.098 -16.525,68.606c2.971,4.862 6.47,11.811 9.644,18.841c3.228,7.106 6.237,14.717 9.158,22.379c5.758,15.46 10.896,31.548 15.43,47.916c9.082,32.77 15.755,66.65 20.579,100.87c0.934,6.895 1.723,13.81 2.492,20.732c-23.688,5.031 -47.123,8.951 -69.108,9.403c-23.611,0.643 -45.021,-3.649 -57.595,-13.243c-6.474,-4.66 -11.459,-10.716 -15.234,-18.829c-3.764,-8.04 -6.287,-18.018 -7.11,-28.753c-0.44,-5.341 -0.49,-10.893 -0.165,-16.283l0.306,-3.936l0.195,-1.815l0.283,-2.064l1.256,-10.498l4.973,-41.997l0.172,-1.463c0.057,-0.49 0.092,-0.988 0.103,-1.489c0.402,-19.297 -3.802,-38.8 -12.355,-55.994c-8.469,-17.237 -21.058,-32.241 -36.353,-43.467c-15.311,-11.187 -33.336,-18.573 -51.875,-21.276c-17.926,-2.879 -39.125,-0.999 -56.695,7.06c-8.959,3.825 -17.141,9.216 -24.404,15.506c-7.313,6.252 -13.607,13.642 -18.592,21.793c-5.054,8.094 -8.986,16.93 -11.161,26.173c-2.301,9.323 -3.346,18.339 -2.734,28.271c1.187,19.756 10.2,38.643 24.216,51.76c13.879,13.335 32.969,20.629 51.576,20.591c8.155,-0.008 15.23,-6.084 16.276,-14.384c1.133,-9.013 -5.249,-17.229 -14.258,-18.362l-0.563,-0.073c-10.498,-1.325 -19.779,-6.65 -26.226,-14.158c-6.47,-7.543 -9.687,-17.221 -9.223,-26.556c0.475,-9.867 4.269,-20.139 10.223,-27.984c2.917,-4.047 6.493,-7.596 10.521,-10.441c3.974,-2.887 8.285,-5.299 12.891,-6.758c17.509,-6.386 41.017,-0.444 56.048,12.807c15.23,12.727 23.347,32.249 22.076,51.186l-6.574,39.06l-1.685,10.089l-0.563,3.071l-0.525,3.335c-0.318,2.179 -0.582,4.292 -0.804,6.409c-0.888,8.431 -1.195,16.777 -0.896,25.281c0.636,16.93 3.511,34.638 10.927,52.028c7.263,17.313 19.622,34.064 35.415,46.021c15.835,11.942 33.884,18.925 51.017,22.566c17.279,3.587 33.903,4.097 49.83,3.308c25.131,-1.627 48.678,-6.52 71.118,-13.312c1.711,41.564 0.731,83.385 -2.722,125.056c-1.581,17.309 -3.377,35.067 -5.781,51.951c-2.175,16.95 -5.521,33.578 -9.292,50.006c-7.807,32.716 -18.577,64.494 -33.643,92.868c-14.917,28.221 -34.412,53.571 -57.208,69.012c-2.768,2.14 -5.728,3.496 -8.549,5.356c-2.921,1.325 -5.77,3.12 -8.699,4.127c-5.804,2.588 -11.628,4.07 -17.336,4.977c-5.728,1.007 -11.325,0.923 -16.831,0.188c-5.521,-0.678 -10.912,-2.309 -16.176,-4.828c-2.703,-1.03 -5.184,-2.772 -7.872,-4.169c-2.933,-1.983 -5.965,-3.898 -8.611,-6c-5.425,-4.116 -10.173,-8.488 -14.051,-13.071c-7.738,-9.196 -12.164,-19.017 -13.852,-31.204c-1.6,-12.137 -0.245,-26.456 3.277,-41.514c3.461,-15.062 8.863,-30.76 15.154,-46.603c3.109,-7.929 6.52,-15.92 10.027,-23.941l5.379,-12.064l3.09,-7.167c1.072,-2.5 2.136,-5.004 3.04,-7.592c7.631,-20.426 12.654,-42.295 13.067,-64.827c0.509,-22.448 -2.638,-45.6 -11.67,-67.607c-8.863,-21.862 -23.409,-43.092 -44.47,-58.146c-20.794,-15.288 -47.671,-22.784 -72.289,-21.609c-3.074,0.142 -6.107,0.429 -9.151,0.678c-3.059,0.272 -6.57,0.9 -9.813,1.436c-6.593,1.424 -13.155,3.296 -19.312,6.019c-12.443,5.238 -23.301,12.906 -32.096,21.398c-17.738,17.118 -28.462,36.522 -36.763,55.409c-8.14,19.052 -13.577,38.122 -17.88,57.055c-8.415,37.892 -12.443,75.398 -14.212,112.755c-1.378,37.475 -1.302,74.211 1.738,111.863c0.77,9.687 8.691,17.486 18.642,17.857c10.724,0.398 19.745,-7.967 20.143,-18.699l0.019,-0.548c1.313,-35.113 3.863,-71.229 8.534,-106.277c1.673,-12.884 3.645,-25.683 5.816,-38.398c0.49,0.421 0.927,0.884 1.428,1.298c0,0 33.826,43.302 108.761,16.509c-6.735,17.455 -12.914,35.683 -17.325,55.443c-4.503,20.349 -7.221,42.812 -3.967,66.841c1.635,11.938 4.744,24.182 9.752,35.752c4.958,11.586 11.7,22.386 19.45,31.778c7.753,9.422 16.44,17.482 25.407,24.469c4.48,3.576 9.078,6.627 13.68,9.744c5.222,3.078 10.368,6.367 16.077,8.867c11.111,5.402 23.305,9.227 35.783,11.168c12.439,2.075 25.25,2.427 37.533,0.808c12.294,-1.516 24.285,-4.472 35.289,-8.867c5.686,-1.979 10.793,-4.694 16.142,-7.148c4.962,-2.841 10.249,-5.444 14.863,-8.649c38.291,-24.818 64.356,-59.115 84.472,-94.293c20.032,-35.469 33.643,-72.925 43.762,-110.668c4.943,-18.895 9.105,-37.912 12.321,-56.955c3.373,-19.052 5.755,-37.456 8.09,-56.324Zm287.377,-57.17c1.394,-22.612 -4.246,-45.489 -16.59,-64.812c-6.122,-9.629 -13.722,-18.439 -22.562,-25.564c-2.282,-1.75 -4.365,-3.415 -6.876,-5.165c-2.722,-1.872 -5.284,-3.419 -7.78,-4.816c-4.947,-2.676 -9.599,-4.778 -14.155,-6.65c-9.047,-3.633 -17.784,-6.206 -26.648,-8.373c-9.032,-2.022 -17.577,-3.752 -28.681,-4.468c-9.706,-0.444 -16.9,-0.211 -24.155,-0.348c-7.125,-0.084 -13.768,-0.36 -19.802,-1.03c-6.03,-0.647 -16.804,-2.875 -23.47,-9.062c-7.615,-8.377 -8.216,-16.835 -8.327,-20.947c-0.394,-8.113 2.883,-17.145 10.039,-25.725c3.519,-4.257 7.883,-8.285 12.799,-11.854c4.771,-3.48 9.323,-6.065 14.135,-7.68c9.415,-3.323 19.545,-3.12 29.044,1.658c9.319,4.43 17.114,14.124 18.198,20.556l0.463,2.906c1.03,7.152 6.999,12.818 14.488,13.209c8.519,0.436 15.782,-6.111 16.222,-14.626c0.624,-12.079 -3.086,-22.597 -8.255,-31.518c-5.299,-8.921 -12.409,-16.394 -20.744,-22.417c-16.54,-12.099 -39.497,-17.08 -60.072,-12.543c-10.253,2.029 -19.879,6.107 -28.229,10.808c-8.216,4.598 -16.126,10.192 -23.405,17.026c-7.278,6.8 -13.921,14.951 -19.128,24.488c-5.234,9.476 -8.848,20.464 -10.066,31.79c-1.321,11.341 -0.015,22.75 2.734,33.187c1.432,5.18 3.178,10.207 5.234,14.943c1.126,2.512 1.903,4.342 3.473,7.278c1.62,3.059 3.534,5.95 5.586,8.752c8.454,11.118 19.461,18.435 29.573,23.202c10.223,4.705 19.99,7.359 29.209,9.258c9.235,1.888 18.029,2.971 26.349,3.813c8.193,0.846 16.479,1.401 22.203,2.232c4.311,0.697 10.95,2.251 16.884,4.131c6.099,1.78 12.099,4.039 17.371,6.279c2.573,1.133 4.939,2.309 6.777,3.362c0.869,0.509 1.623,0.95 2.09,1.279l2.404,1.799c3.208,2.6 6.011,5.509 8.289,8.871c4.587,6.631 7.244,15.089 7.125,23.397c-0.015,1.049 -0.1,2.002 -0.157,3.113l-0.513,3.79c-0.459,2.489 -0.858,5.012 -1.631,7.401c-1.283,4.882 -3.296,9.503 -5.72,13.921c-4.847,8.829 -11.873,16.655 -20.522,22.968c-8.557,6.321 -19.277,11.023 -30.247,13.37c-10.908,2.332 -21.904,2.098 -31.989,-1.271c-9.966,-3.193 -19.863,-9.889 -26.831,-19.193c-3.304,-4.369 -5.793,-8.687 -6.807,-13.19c-2.194,-9.736 0.567,-12.818 0.567,-12.818c3.974,-7.171 3.553,-14.384 -2.244,-19.109c-5.797,-4.725 -14.319,-3.852 -19.044,1.945c-1.623,1.884 -2.232,2.688 -3.143,3.959c-0.842,1.172 -1.577,2.339 -2.286,3.526c-1.405,2.37 -2.588,4.836 -3.572,7.393c-1.953,5.119 -3.013,10.579 -3.331,16.054c-0.659,11.027 1.937,21.793 6.199,30.886c4.227,9.181 9.346,17.053 16.077,24.595c6.65,7.401 14.545,14.051 23.439,19.09c17.75,10.326 38.589,14.652 58.407,13.772c19.859,-0.613 39.144,-6.068 57.185,-15.552c17.658,-9.92 33.597,-24.109 44.7,-41.859c5.686,-8.749 10.242,-18.293 13.442,-28.229c1.738,-4.928 2.937,-10.012 4.043,-15.081l1.367,-7.661c0.348,-2.73 0.689,-5.632 0.865,-8.446Zm-912.241,-577.671c-14.224,22.941 -21.467,51.542 -17.999,79.48c3.542,27.827 17.011,53.808 36.059,71.145c4.602,4.365 10.027,9.162 15.311,13.286c5.402,4.192 11.21,7.73 17.149,10.927c11.984,6.141 24.699,10.33 37.49,12.55c25.629,4.476 51.312,2.297 75.436,-4.882c24.056,-7.309 47.054,-19.545 66.167,-37.919l0.226,-0.214c0.287,-0.279 0.57,-0.567 0.85,-0.861c10.001,-10.613 9.503,-27.314 -1.103,-37.31c-10.609,-10.008 -27.318,-9.51 -37.314,1.103c-22.796,24.178 -62.174,37.414 -95.851,31.621c-8.419,-1.34 -16.341,-3.955 -23.55,-7.5c-7.087,-3.878 -13.619,-7.891 -18.592,-14.656c-2.741,-3.369 -4.958,-6.999 -7.194,-10.437c-0.628,-0.938 -1.164,-1.899 -1.742,-2.845c6.137,0.352 12.282,0.609 18.5,0.704c15.728,0.279 31.579,-0.555 47.747,-2.749c16.169,-2.351 32.662,-6.011 49.555,-14.92c8.335,-4.548 17.018,-10.755 23.964,-20.192c6.987,-9.338 10.996,-21.954 11.096,-33.409l-0.015,-0.444l-0.184,-2.389c-0.716,-9.319 -2.718,-16.482 -5.628,-23.298c-2.875,-6.754 -6.425,-12.96 -10.51,-18.749c-8.331,-11.459 -18.703,-21.069 -30.714,-28.252c-12.137,-7.186 -25.801,-12.531 -40.232,-14.603c-14.384,-1.956 -29.389,-1.493 -43.662,2.638c-14.212,4.097 -27.923,10.984 -39.144,21l-4.173,3.748l-3.511,3.549c-2.286,2.427 -4.571,4.862 -6.689,7.462c-4.315,5.123 -8.232,10.628 -11.743,16.417Zm861.943,341.572l10.096,0l0,27.073l5.586,0l0,-27.073l10.142,0l0,-4.828l-25.824,0l0,4.828Zm-1188.231,-225.735c-1.237,14.377 -0.088,31.035 7.079,47.663c7.045,16.655 20.177,30.243 32.781,38.428c12.742,8.354 25.154,13.228 36.74,16.942c23.244,7.252 44.328,10.494 64.525,14.051c20.089,3.434 39.259,6.689 56.749,11.383c17.455,4.671 33.198,10.716 44.811,18.829c11.632,8.147 19.151,17.861 23.696,31.265c4.736,13.607 5.739,29.213 3.277,44.386c-2.424,15.181 -8.779,29.91 -17.934,41.143c-9.292,11.088 -20.69,18.887 -33.838,20.897c-1.62,0.406 -3.327,0.368 -5.004,0.628l-6.497,0.073c-4.326,-0.073 -8.63,-0.23 -12.807,-0.685c-8.373,-0.877 -16.41,-2.454 -23.776,-5.027c-14.706,-5.123 -26.54,-14.3 -32.98,-26.594c-6.723,-11.938 -7.186,-27.888 -1.371,-37.567l0.479,-0.796c5.234,-8.772 3.028,-20.25 -5.375,-26.41c-8.928,-6.555 -21.471,-4.621 -28.018,4.307c-8.852,12.072 -12.91,26.047 -13.733,39.673c-0.85,13.691 1.773,27.276 7.003,39.715c5.299,12.432 13.42,23.508 23.075,32.544c9.74,8.936 20.878,15.992 32.444,20.958c11.574,5 23.489,8.255 35.3,10.127c5.915,0.988 11.789,1.562 17.639,1.987l8.787,0.41c3.408,-0.054 6.823,0.111 10.249,-0.253c27.758,-1.639 53.958,-15.92 71.719,-35.075c18.025,-19.228 29.707,-42.617 35.572,-67.293c5.973,-24.684 5.578,-51.136 -1.677,-76.509c-3.783,-12.788 -9.61,-25.599 -17.673,-37.027c-7.948,-11.486 -17.949,-21.429 -28.554,-29.381c-21.402,-16.054 -44.424,-24.833 -66.098,-31.131c-21.793,-6.31 -42.828,-10.226 -62.825,-14.109c-19.859,-3.844 -39.095,-7.55 -54.685,-12.884c-7.765,-2.604 -14.308,-5.762 -18.546,-8.733c-4.33,-3.067 -5.647,-5.05 -6.597,-7.236c-0.919,-2.152 -1.723,-6.428 -1.145,-12.294c0.521,-5.379 1.991,-10.406 4.575,-15.162c5.081,-9.491 14.809,-18.033 27.218,-23.37c12.363,-5.456 27.092,-7.389 41.671,-6.011c7.317,0.666 14.66,2.022 22.034,3.959c7.37,1.899 14.878,4.112 22.436,7.075c15.296,5.605 30.58,13.726 48.421,22.543l1.604,0.789c5.28,2.577 11.605,2.944 17.443,0.475c10.713,-4.526 15.724,-16.881 11.195,-27.593c-4.583,-10.847 -10.736,-21.085 -18.489,-30.27c-7.577,-9.338 -16.67,-17.677 -26.824,-24.833c-20.204,-14.472 -45.117,-23.807 -71.118,-25.928c-25.928,-2.24 -52.935,1.214 -77.94,12.309c-24.829,10.912 -48.245,29.806 -62.385,56.511c-7.045,13.224 -11.383,28.183 -12.635,43.099Zm1250.78,252.808l0,-31.901l-7.776,0l-8.576,24.978l-0.092,0l-8.798,-24.978l-7.864,0l0,31.901l5.314,0l0,-24.615l0.092,0l8.844,24.615l4.602,0l8.848,-24.615l0.088,0l0,24.615l5.318,0Zm-552.283,-294.464l-0.211,-0.502l-0.421,-0.995l-3.205,-7.914c-16.624,-42.349 -21.376,-88.875 -11.325,-129.229c4.782,-20.376 14.074,-39.022 26.234,-56.5c12.321,-17.451 28.206,-33.08 45.584,-48.831l0.364,-0.318c4.575,-4.166 6.317,-10.885 3.867,-16.957c-3.147,-7.784 -12.011,-11.551 -19.798,-8.404c-24.205,9.771 -46.882,25.262 -65.47,45.711c-18.55,20.46 -32.165,46.312 -38.674,73.526c-4.721,18.998 -6.023,38.405 -4.901,57.377l-13.875,-19.381l-85.429,-119.363c-0.731,-1.011 -1.539,-2.029 -2.393,-2.979c-12.968,-14.495 -35.235,-15.736 -49.731,-2.768c-14.499,12.968 -15.74,35.235 -2.772,49.738l146.792,164.09l24.465,27.356l12.233,13.672c1.003,1.152 2.075,2.251 3.021,3.45l0.659,0.942c-0.241,-0.257 1.612,1.949 2.496,2.63c1.252,1.095 2.634,2.067 4.219,2.883c3.178,1.658 6.865,2.435 10.303,2.293c6.788,-0.379 12.803,-3.488 16.911,-9.943c2.037,-3.296 3.162,-7.47 3.009,-11.44c-0.046,-1.815 -0.413,-3.836 -0.869,-5.299c-0.322,-1.133 -0.915,-2.481 -1.084,-2.845c-0.065,-0.138 -0.057,-0.123 0,0Zm-3.595,-3.442l-0.773,-0.842c-0.073,-0.088 -0.13,-0.184 -0.199,-0.272c0.624,0.685 1.145,1.306 0.972,1.114Z" style="fill:#ea5152;"/><path d="M678.239,623.634c8.898,-0.609 17.815,-1.363 26.571,-2.416c14.538,-1.853 28.922,-4.104 42.518,-7.715c13.454,-3.607 26.64,-8.201 35.982,-14.694c4.652,-3.166 8.04,-6.719 9.713,-9.824c1.283,-2.339 1.849,-4.384 1.949,-6.823c-0.934,-1.417 -2.783,-4.219 -4.721,-6.811c-2.079,-2.78 -4.61,-5.513 -7.412,-7.979c-5.525,-4.962 -11.972,-9.323 -18.749,-12.57c-13.098,-6.742 -27.808,-8.075 -40.645,-4.422c-6.432,1.788 -12.355,4.843 -17.382,8.948l-1.911,1.543l-2.224,2.113c-1.436,1.451 -2.906,2.872 -4.219,4.411c-2.722,3.002 -5.268,6.13 -7.485,9.434c-9.074,13.117 -13.645,28.413 -12.424,43.344c0.096,1.156 0.283,2.305 0.44,3.461" style="fill:#ea5152;fill-rule:nonzero;"/></g></svg>