<svg id="Layer_1" enable-background="new 0 0 1000 1000" height="1000" viewBox="0 0 1000 1000" width="1000" xmlns="http://www.w3.org/2000/svg" xmlns:xlink="http://www.w3.org/1999/xlink"><clipPath id="SVGID_2_"><circle id="SVGID_1_" cx="500" cy="500" r="500"/></clipPath><g><g><path clip-path="url(#SVGID_2_)" d="m-550.649 0h2744.442v1000h-2744.442z" fill="#fff"/><path clip-path="url(#SVGID_2_)" d="m-550.649 0h2744.442v111.111h-2744.442z" fill="#b22234"/><path clip-path="url(#SVGID_2_)" d="m-550.649 222.222h2744.442v111.112h-2744.442z" fill="#b22234"/><path clip-path="url(#SVGID_2_)" d="m-550.649 444.444h2744.442v111.113h-2744.442z" fill="#b22234"/><path clip-path="url(#SVGID_2_)" d="m-550.649 666.667h2744.442v111.111h-2744.442z" fill="#b22234"/><path clip-path="url(#SVGID_2_)" d="m-550.649 888.889h2744.442v111.111h-2744.442z" fill="#b22234"/><path clip-path="url(#SVGID_2_)" d="m-550.649 0h1097.775v555.557h-1097.775z" fill="#3c3b6e"/><g fill="#fff"><path clip-path="url(#SVGID_2_)" d="m362.243 44.172-9.989 30.754h-32.331l26.153 18.998-9.984 30.74 26.151-18.998 26.15 18.998-9.986-30.743 26.141-18.995h-32.317z"/><path clip-path="url(#SVGID_2_)" d="m271.236 122.178-9.986 30.741h-32.322l26.152 18.999-9.994 30.741 26.154-19 26.147 19-9.987-30.741 26.153-18.999h-32.33z"/><path clip-path="url(#SVGID_2_)" d="m453.233 122.178-9.986 30.741h-32.319l26.15 18.998-9.995 30.742 26.155-19 26.146 19-9.986-30.739 26.155-19.001h-32.324z"/><path clip-path="url(#SVGID_2_)" d="m-365.758 244.668-.003-.002.002-.003.002.005z"/><path clip-path="url(#SVGID_2_)" d="m-183.76 244.668h-.001l.003-.005v.003z"/><path clip-path="url(#SVGID_2_)" d="m180.243 200.173-9.987 30.741h-32.33l26.155 19-9.988 30.75 26.146-18.999 26.153 18.999-9.996-30.75 26.154-19h-32.322zm-.006 44.495h-.001l.003-.005.001.003z"/><path clip-path="url(#SVGID_2_)" d="m362.243 200.173-9.987 30.741h-32.333l26.157 19.001-9.988 30.749 26.15-18.997 26.15 18.997-9.99-30.752 26.145-18.998h-32.318zm0 44.495-.003-.002.002-.003.003.005z"/><path clip-path="url(#SVGID_2_)" d="m89.236 278.181-9.985 30.738h-32.32l26.143 18.997-9.988 30.743 26.15-18.999 26.15 18.999-9.986-30.739 26.155-19.001h-32.332z"/><path clip-path="url(#SVGID_2_)" d="m271.236 278.181-9.986 30.738h-32.322l26.153 18.999-9.995 30.741 26.154-19.001 26.147 19.001-9.987-30.741 26.153-18.999h-32.33z"/><path clip-path="url(#SVGID_2_)" d="m453.233 278.181-9.986 30.738h-32.319l26.15 18.997-9.995 30.743 26.155-19.001 26.146 19.001-9.987-30.739 26.156-19.001h-32.324z"/><path clip-path="url(#SVGID_2_)" d="m190.229 386.915-9.986-30.739-9.987 30.739h-32.33l26.153 19-9.987 30.737 26.147-18.999 26.153 18.999-9.993-30.738 26.151-18.999z"/><path clip-path="url(#SVGID_2_)" d="m372.229 386.915-9.986-30.739-9.987 30.739h-32.333l26.156 19.002-9.987 30.735 26.151-18.996 26.15 18.996-9.987-30.74 26.142-18.997z"/><path clip-path="url(#SVGID_2_)" d="m99.223 464.92-9.987-30.738-9.986 30.738h-32.319l26.142 18.999-9.987 30.741 26.15-18.999 26.15 18.999-9.986-30.737 26.155-19.003z"/><path clip-path="url(#SVGID_2_)" d="m281.223 464.92-9.987-30.738-9.986 30.738h-32.322l26.153 19.001-9.995 30.739 26.154-19.001 26.147 19.001-9.987-30.739 26.153-19.001z"/><path clip-path="url(#SVGID_2_)" d="m463.229 464.92-9.996-30.738-9.986 30.738h-32.319l26.15 18.999-9.995 30.741 26.155-19.001 26.146 19.001-9.987-30.737 26.156-19.003z"/></g></g></g></svg>