<?xml version="1.0" encoding="UTF-8" standalone="no"?><!DOCTYPE svg PUBLIC "-//W3C//DTD SVG 1.1//EN" "http://www.w3.org/Graphics/SVG/1.1/DTD/svg11.dtd"><svg width="100%" height="100%" viewBox="0 0 1875 1875" version="1.1" xmlns="http://www.w3.org/2000/svg" xmlns:xlink="http://www.w3.org/1999/xlink" xml:space="preserve" xmlns:serif="http://www.serif.com/" style="fill-rule:evenodd;clip-rule:evenodd;stroke-linejoin:round;stroke-miterlimit:2;"><g id="Aurion-Logo" serif:id="Aurion Logo"><g><path d="M1455.411,1875l-1035.806,0c-231.738,0 -419.604,-187.866 -419.604,-419.589l0,-1035.822c0,-231.738 187.866,-419.589 419.604,-419.589l1035.806,0c231.738,0 419.589,187.851 419.589,419.589l0,1035.822c0,231.723 -187.851,419.589 -419.589,419.589" style="fill:#114347;fill-rule:nonzero;"/></g></g><g id="Layer-1" serif:id="Layer 1"><g><path d="M712.622,454.704c-1.033,0 -2.085,0.014 -3.166,0.048c-21.287,0.7 -35.431,0.9 -48.528,0.9c-17.626,0 -33.344,-0.36 -62.059,-0.36l-181.777,0c180.44,320.109 360.95,640.333 544.071,965.193c59.238,-104.515 100.231,-173.316 155.598,-273.77c5.295,-9.612 5.017,-27.441 -0.415,-37.12c-111.494,-199.275 -247.96,-428.448 -359.413,-627.75c-11.098,-19.866 -23.295,-27.142 -44.312,-27.142" style="fill:#fff;fill-rule:nonzero;"/></g><g><path d="M1069.564,685.533c-0.693,43.634 21.461,87.164 62.754,106.718c34.507,16.34 68.864,18.232 103.979,1.706c25.119,-11.83 46.255,-29.118 64.306,-49.38c27.723,-31.104 54.788,-80.602 78.732,-123.577c21.767,-39.07 68.437,-119.455 76.956,-146.03c3.569,-11.135 1.844,-19.2 -11.407,-19.2c-61.074,0 -129.584,-1.322 -183.068,-1.255c-79.62,0.104 -104.915,-0.089 -153.356,5.287c-46.44,5.147 -92.866,39.835 -107.604,86.309c-12.308,38.776 14.344,102.16 20.04,95.921c34.985,-38.32 51.928,-48.146 85.26,-64.137c9.161,-4.392 18.601,-7.855 28.061,-10.693l-0.34,-0.053c0,0 5.794,-1.701 15.256,-3.926c0.338,-0.075 2.77,-0.806 3.108,-0.881c18.437,-4.283 47.968,-9.692 79.76,-9.692c41.476,0 45.316,0.77 45.316,0.77l-0.068,8.345c0,0 -31.099,2.165 -42.63,3.842c-14.069,2.046 -32.016,6.636 -42.461,9.484c-21.772,6.622 -43.436,14.047 -51.317,18.256c-34.425,18.379 -44.932,27.651 -70.857,51.272c-19.108,17.409 -39.922,39.297 -56.745,59.088c-12.385,14.564 -20.727,29.27 -30.817,45.757c-4.288,7.006 -9.11,17.45 -3.552,25.836c5.937,8.953 20.988,21.753 25.436,12.023c23.626,-51.687 36.3,-70.696 65.295,-105.837" style="fill:#fff;fill-rule:nonzero;"/></g></g></svg>